<svg id="Layer_1" data-name="Layer 1" xmlns="http://www.w3.org/2000/svg" viewBox="0 0 500 500"><defs><style>.cls-1{fill:#fff;}.cls-2{fill:#1d1d1b;}.cls-3{fill:#7b5c25;}.cls-4{fill:#face7f;}.cls-5{fill:#fabb4c;}.cls-6{fill:#2a2113;}.cls-7{fill:#2a96c4;}.cls-8{fill:#070c0f;}.cls-9{fill:#292115;}.cls-10{fill:#f1844e;}.cls-11{fill:#7b7a74;}</style></defs><path id="Face_White" class="cls-1" d="M335.75,186.35v74.51c-7.44,3.1-15.62-17.34-24.18-17.34a63.12,63.12,0,0,1-63.13-63.13V116.31a63,63,0,0,1,1.3-12.82c1,0,2.06-.06,3.09-.06a82.66,82.66,0,0,1,57.77,23.43c.3.28.58.57.87.85a83.13,83.13,0,0,1,17.7,26.21c1.6,3.77,16.44-5.27,13.79-2.07C337.6,158.33,335.75,179.2,335.75,186.35Z"/><path class="cls-2" d="M320.57,242.88A13.26,13.26,0,0,1,335.75,256v81.76a82.92,82.92,0,0,1-71.4,82.12h0l-5.29.57L86.25,439c-25.45,2.73-41.54-26.63-25.53-46.6L163,264.84a31.57,31.57,0,0,0,6.94-19.76V186.35a83,83,0,0,1,68.66-81.7,82,82,0,0,1,11.18-1.16,63,63,0,0,0-1.31,12.82v63.07c0,34.87,27.84,63.91,62.71,64.14A63.84,63.84,0,0,0,320.57,242.88Z"/><path class="cls-2" d="M264.33,419.87c-1.75.25-3.51.44-5.29.57Z"/><path class="cls-3" d="M321.69,120.62s-29.13,43-9.46,28.09S321.69,120.62,321.69,120.62Z"/><path class="cls-4" d="M310.62,128.25c0,.44,0,.87,0,1.29a39.68,39.68,0,0,1-6.27,20.22.21.21,0,0,0-.06.1l-.91,1.34a.43.43,0,0,0,0,.07,40.16,40.16,0,0,1-5.66,6.41.11.11,0,0,0,0,0,42.29,42.29,0,0,1-5.08,3.94,39.78,39.78,0,0,1-21.81,6.47c-8.26,0-17.27-1-22.29-6.8-17.54-20.29-11.73-43.66,1.3-57.85H250l.73,0h2.11A82.6,82.6,0,0,1,309,125.35h0c.54.48,1.07,1,1.6,1.5C310.61,127.31,310.62,127.78,310.62,128.25Z"/><path class="cls-4" d="M445.36,10.48c-13.07-.79-41.22,22.64-70.32,53a743.15,743.15,0,0,0-62.14,74c-3.06,4.21-5.93,8.29-8.57,12.23a.21.21,0,0,0-.06.1l-.91,1.34a.43.43,0,0,0,0,.07l-1.27-1.14-52.31-46.64S255,98.24,264,90.14c26.75-24.21,86.29-73.92,135.72-85.07,17.09-3.87,33-3.13,45.86,4.85A.3.3,0,0,1,445.36,10.48Z"/><path class="cls-5" d="M444.06,18,385.38,95.68l-41.72,55.24-10.85,14.37a18.42,18.42,0,0,1-28.41,1.22l-1.46-1.64a5.9,5.9,0,0,1-.74-6.87c1.22-2.14,3-5.15,5.35-8.88,14.32-22.74,50.28-72.52,114.86-119.25Q432,23,442.35,16.16A1.27,1.27,0,0,1,444.06,18Z"/><path class="cls-6" d="M343.66,150.92l-10.85,14.37a18.42,18.42,0,0,1-28.41,1.22l-1.46-1.64a5.9,5.9,0,0,1-.74-6.87,45.63,45.63,0,0,1,2.52-4.3c4.93-7.86,11.17-6.82,14.45-3.11C324,156.1,327.37,158.24,343.66,150.92Z"/><path class="cls-6" d="M318.46,149.87c1.81,1.7-2.54-.17-2.46.21-3.05,4.2,1.31,4.91-1.33,8.84,0,0-6.58-8.86-6.59-8.83-.31.46-1.32,1.14-1.61,1.58l-.91,1c-1.65,2.33,2.53,11.26-2.47,10.53-3.15-.69-2-9.88-1-13.08,2-6.84.24-16.91-13.06-30.67a53.21,53.21,0,0,0-37.53-16h-.74a6.65,6.65,0,0,0-.73,0h-.25s-.92.53,4.8-4.72a7.23,7.23,0,0,1,6.83-1.65c15.86,4.39,38.92,13.32,45.92,30.06"/><circle class="cls-7" cx="266.78" cy="135.48" r="10.87"/><circle class="cls-8" cx="266.78" cy="135.79" r="4.63"/><path class="cls-9" d="M445.36,10.48c-13.07-.79-41.22,22.64-70.32,53,6.48-29.92,16-47.79,24.64-58.42,17.09-3.87,33-3.13,45.86,4.85A.3.3,0,0,1,445.36,10.48Z"/><path class="cls-10" d="M444.06,18,385.38,95.68c7.18-28.06,17.94-50.69,37-65.81Q432,23,442.35,16.16A1.27,1.27,0,0,1,444.06,18Z"/><path class="cls-11" d="M266.49,483.72l-9,4.5c-5.59-13.88-10.55-20-22.71-29.49l22.71-11.88C260.06,461.9,260,473.51,266.49,483.72Z"/><path class="cls-11" d="M303.58,471.4l-9,4.51c-5.59-13.88-10.75-19.59-22.71-29.5l22.71-11.87C296.55,449.89,297.11,461.19,303.58,471.4Z"/><path class="cls-2" d="M247.49,379.36l-62.28,37.37,57.57,48.78a9.88,9.88,0,0,0,16.15-9Z"/><path class="cls-2" d="M284.4,367l-62.27,37.37,57.57,48.78a9.87,9.87,0,0,0,16.14-9Z"/><path class="cls-11" d="M314.55,470.15a33.44,33.44,0,0,0-23.94,8.52,1.1,1.1,0,0,0,1.32,1.75,55.22,55.22,0,0,1,22.73-8.19A1,1,0,0,0,314.55,470.15Z"/><path class="cls-11" d="M276,481.87a33.39,33.39,0,0,0-24,8.51,1.1,1.1,0,0,0,1.32,1.75,55.22,55.22,0,0,1,22.73-8.19A1,1,0,0,0,276,481.87Z"/><path class="cls-11" d="M282.87,488.38A33.43,33.43,0,0,0,257.49,487a1.1,1.1,0,0,0,.54,2.12,55.14,55.14,0,0,1,24.13,1.23A1,1,0,0,0,282.87,488.38Z"/><path class="cls-11" d="M320,477.07a33.4,33.4,0,0,0-25.37-1.39,1.1,1.1,0,0,0,.54,2.12A55.15,55.15,0,0,1,319.27,479,1,1,0,0,0,320,477.07Z"/><path class="cls-11" d="M317.15,484.32c-4.54-4.69-9.64-9.26-20.6-9.6-1.36-.05-1.37.91,0,1.19,8.26,1.74,12.06,4.79,19.28,10A1,1,0,0,0,317.15,484.32Z"/><path class="cls-11" d="M279.27,495.42c-4.54-4.68-9.65-9.25-20.6-9.59-1.36-.05-1.38.9-.05,1.19,8.26,1.74,12.07,4.79,19.28,10A1,1,0,0,0,279.27,495.42Z"/></svg>